<?xml version="1.0" encoding="UTF-8"?>
<!--Generator: Apple Native CoreSVG 228-->
<!DOCTYPE svg
PUBLIC "-//W3C//DTD SVG 1.1//EN"
       "http://www.w3.org/Graphics/SVG/1.1/DTD/svg11.dtd">
<svg version="1.1" xmlns="http://www.w3.org/2000/svg" xmlns:xlink="http://www.w3.org/1999/xlink" width="3300" height="2200">
 <!--glyph: "", point size: 100.0, font version: "19.0d5e1internal", template writer version: "101"-->
 <style>.monochrome-0 {fill:#000000}
.monochrome-1 {fill:#FFFFFF;opacity:0.0;-sfsymbols-clear-behind:true}
.monochrome-2 {fill:#000000}

.multicolor-0:tintColor {fill:#007AFF}
.multicolor-1:tintColor {fill:#007AFF;opacity:0.0;-sfsymbols-clear-behind:true}
.multicolor-2:tintColor {fill:#007AFF}

.hierarchical-0:primary {fill:#212121}
.hierarchical-1:primary {fill:#212121;opacity:0.0;-sfsymbols-clear-behind:true}
.hierarchical-2:secondary {fill:#4D4D4D}

.SFSymbolsPreview007AFF {fill:#007AFF;opacity:1.0}
.SFSymbolsPreviewFFFFFF {fill:#FFFFFF;opacity:1.0}
</style>
 <g id="Notes">
  <rect height="2200" id="artboard" style="fill:white;opacity:1" width="3300" x="0" y="0"/>
  <line style="fill:none;stroke:black;opacity:1;stroke-width:0.5;" x1="263" x2="3036" y1="292" y2="292"/>
  <text style="stroke:none;fill:black;font-family:sans-serif;font-size:13;font-weight:bold;" transform="matrix(1 0 0 1 263 322)">Weight/Scale Variations</text>
  <text style="stroke:none;fill:black;font-family:sans-serif;font-size:13;text-anchor:middle;" transform="matrix(1 0 0 1 559.711 322)">Ultralight</text>
  <text style="stroke:none;fill:black;font-family:sans-serif;font-size:13;text-anchor:middle;" transform="matrix(1 0 0 1 856.422 322)">Thin</text>
  <text style="stroke:none;fill:black;font-family:sans-serif;font-size:13;text-anchor:middle;" transform="matrix(1 0 0 1 1153.13 322)">Light</text>
  <text style="stroke:none;fill:black;font-family:sans-serif;font-size:13;text-anchor:middle;" transform="matrix(1 0 0 1 1449.84 322)">Regular</text>
  <text style="stroke:none;fill:black;font-family:sans-serif;font-size:13;text-anchor:middle;" transform="matrix(1 0 0 1 1746.56 322)">Medium</text>
  <text style="stroke:none;fill:black;font-family:sans-serif;font-size:13;text-anchor:middle;" transform="matrix(1 0 0 1 2043.27 322)">Semibold</text>
  <text style="stroke:none;fill:black;font-family:sans-serif;font-size:13;text-anchor:middle;" transform="matrix(1 0 0 1 2339.98 322)">Bold</text>
  <text style="stroke:none;fill:black;font-family:sans-serif;font-size:13;text-anchor:middle;" transform="matrix(1 0 0 1 2636.69 322)">Heavy</text>
  <text style="stroke:none;fill:black;font-family:sans-serif;font-size:13;text-anchor:middle;" transform="matrix(1 0 0 1 2933.4 322)">Black</text>
  <line style="fill:none;stroke:black;opacity:1;stroke-width:0.5;" x1="263" x2="3036" y1="1903" y2="1903"/>
  <g transform="matrix(1 0 0 1 263 1933)">
   <path d="M9.24805 0.830078C13.5547 0.830078 17.1387-2.74414 17.1387-7.05078C17.1387-11.3574 13.5449-14.9316 9.23828-14.9316C4.94141-14.9316 1.36719-11.3574 1.36719-7.05078C1.36719-2.74414 4.95117 0.830078 9.24805 0.830078ZM9.24805-0.654297C5.70312-0.654297 2.87109-3.49609 2.87109-7.05078C2.87109-10.6055 5.69336-13.4473 9.23828-13.4473C12.793-13.4473 15.6445-10.6055 15.6445-7.05078C15.6445-3.49609 12.8027-0.654297 9.24805-0.654297ZM5.6543-7.05078C5.6543-6.62109 5.95703-6.32812 6.40625-6.32812L8.50586-6.32812L8.50586-4.20898C8.50586-3.76953 8.79883-3.4668 9.22852-3.4668C9.67773-3.4668 9.9707-3.76953 9.9707-4.20898L9.9707-6.32812L12.0898-6.32812C12.5293-6.32812 12.832-6.62109 12.832-7.05078C12.832-7.49023 12.5293-7.79297 12.0898-7.79297L9.9707-7.79297L9.9707-9.90234C9.9707-10.3516 9.67773-10.6543 9.22852-10.6543C8.79883-10.6543 8.50586-10.3516 8.50586-9.90234L8.50586-7.79297L6.40625-7.79297C5.95703-7.79297 5.6543-7.49023 5.6543-7.05078Z"/>
  </g>
  <g transform="matrix(1 0 0 1 281.867 1933)">
   <path d="M11.709 2.91016C17.1582 2.91016 21.6699-1.61133 21.6699-7.05078C21.6699-12.5 17.1484-17.0117 11.6992-17.0117C6.25977-17.0117 1.74805-12.5 1.74805-7.05078C1.74805-1.61133 6.26953 2.91016 11.709 2.91016ZM11.709 1.25C7.09961 1.25 3.41797-2.44141 3.41797-7.05078C3.41797-11.6602 7.08984-15.3516 11.6992-15.3516C16.3086-15.3516 20.0098-11.6602 20.0098-7.05078C20.0098-2.44141 16.3184 1.25 11.709 1.25ZM7.17773-7.05078C7.17773-6.57227 7.50977-6.25 8.00781-6.25L10.8789-6.25L10.8789-3.36914C10.8789-2.88086 11.2109-2.53906 11.6895-2.53906C12.1777-2.53906 12.5195-2.87109 12.5195-3.36914L12.5195-6.25L15.4004-6.25C15.8887-6.25 16.2305-6.57227 16.2305-7.05078C16.2305-7.53906 15.8887-7.88086 15.4004-7.88086L12.5195-7.88086L12.5195-10.752C12.5195-11.25 12.1777-11.5918 11.6895-11.5918C11.2109-11.5918 10.8789-11.25 10.8789-10.752L10.8789-7.88086L8.00781-7.88086C7.50977-7.88086 7.17773-7.53906 7.17773-7.05078Z"/>
  </g>
  <g transform="matrix(1 0 0 1 305.646 1933)">
   <path d="M14.9707 5.66406C21.9336 5.66406 27.6953-0.0976562 27.6953-7.05078C27.6953-14.0137 21.9238-19.7754 14.9609-19.7754C8.00781-19.7754 2.25586-14.0137 2.25586-7.05078C2.25586-0.0976562 8.01758 5.66406 14.9707 5.66406ZM14.9707 3.84766C8.93555 3.84766 4.08203-1.01562 4.08203-7.05078C4.08203-13.0957 8.92578-17.9492 14.9609-17.9492C21.0059-17.9492 25.8691-13.0957 25.8691-7.05078C25.8691-1.01562 21.0156 3.84766 14.9707 3.84766ZM9.19922-7.05078C9.19922-6.5332 9.57031-6.17188 10.1172-6.17188L14.0625-6.17188L14.0625-2.2168C14.0625-1.67969 14.4336-1.29883 14.9512-1.29883C15.4883-1.29883 15.8594-1.66992 15.8594-2.2168L15.8594-6.17188L19.8145-6.17188C20.3516-6.17188 20.7324-6.5332 20.7324-7.05078C20.7324-7.59766 20.3613-7.96875 19.8145-7.96875L15.8594-7.96875L15.8594-11.9141C15.8594-12.4609 15.4883-12.8418 14.9512-12.8418C14.4336-12.8418 14.0625-12.4609 14.0625-11.9141L14.0625-7.96875L10.1172-7.96875C9.57031-7.96875 9.19922-7.59766 9.19922-7.05078Z"/>
  </g>
  <text style="stroke:none;fill:black;font-family:sans-serif;font-size:13;font-weight:bold;" transform="matrix(1 0 0 1 263 1953)">Design Variations</text>
  <text style="stroke:none;fill:black;font-family:sans-serif;font-size:13;" transform="matrix(1 0 0 1 263 1971)">Symbols are supported in up to nine weights and three scales.</text>
  <text style="stroke:none;fill:black;font-family:sans-serif;font-size:13;" transform="matrix(1 0 0 1 263 1989)">For optimal layout with text and other symbols, vertically align</text>
  <text style="stroke:none;fill:black;font-family:sans-serif;font-size:13;" transform="matrix(1 0 0 1 263 2007)">symbols with the adjacent text.</text>
  <line style="fill:none;stroke:#00AEEF;stroke-width:0.5;opacity:1.0;" x1="776" x2="776" y1="1919" y2="1933"/>
  <g transform="matrix(1 0 0 1 776 1933)">
   <path d="M3.31055 0.15625C3.82812 0.15625 4.08203-0.0390625 4.26758-0.585938L5.52734-4.0332L11.2891-4.0332L12.5488-0.585938C12.7344-0.0390625 12.9883 0.15625 13.4961 0.15625C14.0137 0.15625 14.3457-0.15625 14.3457-0.644531C14.3457-0.810547 14.3164-0.966797 14.2383-1.17188L9.6582-13.3691C9.43359-13.9648 9.0332-14.2676 8.4082-14.2676C7.80273-14.2676 7.39258-13.9746 7.17773-13.3789L2.59766-1.16211C2.51953-0.957031 2.49023-0.800781 2.49023-0.634766C2.49023-0.146484 2.80273 0.15625 3.31055 0.15625ZM6.00586-5.51758L8.37891-12.0898L8.42773-12.0898L10.8008-5.51758Z"/>
  </g>
  <line style="fill:none;stroke:#00AEEF;stroke-width:0.5;opacity:1.0;" x1="793.197" x2="793.197" y1="1919" y2="1933"/>
  <text style="stroke:none;fill:black;font-family:sans-serif;font-size:13;font-weight:bold;" transform="matrix(1 0 0 1 776 1953)">Margins</text>
  <text style="stroke:none;fill:black;font-family:sans-serif;font-size:13;" transform="matrix(1 0 0 1 776 1971)">Leading and trailing margins on the left and right side of each symbol</text>
  <text style="stroke:none;fill:black;font-family:sans-serif;font-size:13;" transform="matrix(1 0 0 1 776 1989)">can be adjusted by modifying the x-location of the margin guidelines.</text>
  <text style="stroke:none;fill:black;font-family:sans-serif;font-size:13;" transform="matrix(1 0 0 1 776 2007)">Modifications are automatically applied proportionally to all</text>
  <text style="stroke:none;fill:black;font-family:sans-serif;font-size:13;" transform="matrix(1 0 0 1 776 2025)">scales and weights.</text>
  <g transform="matrix(1 0 0 1 1289 1933)">
   <path d="M2.8418 1.86523L4.54102 3.57422C5.40039 4.44336 6.38672 4.38477 7.31445 3.35938L18.0078-8.42773L17.041-9.4043L6.42578 2.27539C6.07422 2.67578 5.74219 2.77344 5.27344 2.30469L4.10156 1.14258C3.63281 0.683594 3.74023 0.341797 4.14062-0.0195312L15.6152-10.8203L14.6387-11.7871L3.04688-0.898438C2.06055 0.0195312 1.98242 0.996094 2.8418 1.86523ZM9.25781-16.3281C8.83789-15.918 8.80859-15.3418 9.04297-14.9512C9.27734-14.5898 9.73633-14.3555 10.3809-14.5215C11.8457-14.8633 13.3691-14.9219 14.7949-13.9844L14.209-12.5293C13.8672-11.6992 14.043-11.1133 14.5801-10.5664L16.875-8.25195C17.3633-7.76367 17.7734-7.74414 18.3398-7.8418L19.4043-8.03711L20.0684-7.36328L20.0293-6.80664C19.9902-6.30859 20.1172-5.92773 20.6055-5.44922L21.3672-4.70703C21.8457-4.22852 22.4609-4.19922 22.9297-4.66797L25.8398-7.58789C26.3086-8.05664 26.2891-8.65234 25.8105-9.13086L25.0391-9.89258C24.5605-10.3711 24.1895-10.5273 23.7109-10.4883L23.1348-10.4395L22.4902-11.0742L22.7344-12.1973C22.8613-12.7637 22.7051-13.2031 22.1191-13.7891L19.9219-15.9766C16.582-19.2969 12.1484-19.2188 9.25781-16.3281ZM10.752-15.957C13.1836-17.7344 16.4746-17.4316 18.7012-15.2051L21.1328-12.793C21.3672-12.5586 21.4062-12.373 21.3379-12.0312L21.0156-10.5469L22.5195-9.0625L23.5059-9.12109C23.7598-9.13086 23.8379-9.11133 24.0332-8.91602L24.6094-8.33984L22.168-5.89844L21.5918-6.47461C21.3965-6.66992 21.3672-6.74805 21.377-7.01172L21.4453-7.98828L19.9512-9.47266L18.4277-9.21875C18.1055-9.15039 17.959-9.17969 17.7148-9.41406L15.7129-11.416C15.459-11.6504 15.4297-11.8164 15.5859-12.1875L16.4648-14.2773C14.9023-15.7324 12.8711-16.3574 10.8398-15.7617C10.6836-15.7227 10.625-15.8496 10.752-15.957Z"/>
  </g>
  <text style="stroke:none;fill:black;font-family:sans-serif;font-size:13;font-weight:bold;" transform="matrix(1 0 0 1 1289 1953)">Exporting</text>
  <text style="stroke:none;fill:black;font-family:sans-serif;font-size:13;" transform="matrix(1 0 0 1 1289 1971)">Symbols should be outlined when exporting to ensure the</text>
  <text style="stroke:none;fill:black;font-family:sans-serif;font-size:13;" transform="matrix(1 0 0 1 1289 1989)">design is preserved when submitting to Xcode.</text>
  <text id="template-version" style="stroke:none;fill:black;font-family:sans-serif;font-size:13;text-anchor:end;" transform="matrix(1 0 0 1 3036 1933)">Template v.4.0</text>
  <text style="stroke:none;fill:black;font-family:sans-serif;font-size:13;text-anchor:end;" transform="matrix(1 0 0 1 3036 1951)">Requires Xcode 14 or greater</text>
  <text id="descriptive-name" style="stroke:none;fill:black;font-family:sans-serif;font-size:13;text-anchor:end;" transform="matrix(1 0 0 1 3036 1969)">Generated from square.and.arrow.up.left</text>
  <text style="stroke:none;fill:black;font-family:sans-serif;font-size:13;text-anchor:end;" transform="matrix(1 0 0 1 3036 1987)">Typeset at 100 points</text>
  <text style="stroke:none;fill:black;font-family:sans-serif;font-size:13;" transform="matrix(1 0 0 1 263 726)">Small</text>
  <text style="stroke:none;fill:black;font-family:sans-serif;font-size:13;" transform="matrix(1 0 0 1 263 1156)">Medium</text>
  <text style="stroke:none;fill:black;font-family:sans-serif;font-size:13;" transform="matrix(1 0 0 1 263 1586)">Large</text>
 </g>
 <g id="Guides">
  <g id="H-reference" style="fill:#27AAE1;stroke:none;" transform="matrix(1 0 0 1 339 696)">
   <path d="M0.993654 0L3.63775 0L29.3281-67.1323L30.0303-67.1323L30.0303-70.459L28.1226-70.459ZM11.6885-24.4799L46.9815-24.4799L46.2315-26.7285L12.4385-26.7285ZM55.1196 0L57.7637 0L30.6382-70.459L29.4326-70.459L29.4326-67.1323Z"/>
  </g>
  <line id="Baseline-S" style="fill:none;stroke:#27AAE1;opacity:1;stroke-width:0.5;" x1="263" x2="3036" y1="696" y2="696"/>
  <line id="Capline-S" style="fill:none;stroke:#27AAE1;opacity:1;stroke-width:0.5;" x1="263" x2="3036" y1="625.541" y2="625.541"/>
  <g id="H-reference" style="fill:#27AAE1;stroke:none;" transform="matrix(1 0 0 1 339 1126)">
   <path d="M0.993654 0L3.63775 0L29.3281-67.1323L30.0303-67.1323L30.0303-70.459L28.1226-70.459ZM11.6885-24.4799L46.9815-24.4799L46.2315-26.7285L12.4385-26.7285ZM55.1196 0L57.7637 0L30.6382-70.459L29.4326-70.459L29.4326-67.1323Z"/>
  </g>
  <line id="Baseline-M" style="fill:none;stroke:#27AAE1;opacity:1;stroke-width:0.5;" x1="263" x2="3036" y1="1126" y2="1126"/>
  <line id="Capline-M" style="fill:none;stroke:#27AAE1;opacity:1;stroke-width:0.5;" x1="263" x2="3036" y1="1055.54" y2="1055.54"/>
  <g id="H-reference" style="fill:#27AAE1;stroke:none;" transform="matrix(1 0 0 1 339 1556)">
   <path d="M0.993654 0L3.63775 0L29.3281-67.1323L30.0303-67.1323L30.0303-70.459L28.1226-70.459ZM11.6885-24.4799L46.9815-24.4799L46.2315-26.7285L12.4385-26.7285ZM55.1196 0L57.7637 0L30.6382-70.459L29.4326-70.459L29.4326-67.1323Z"/>
  </g>
  <line id="Baseline-L" style="fill:none;stroke:#27AAE1;opacity:1;stroke-width:0.5;" x1="263" x2="3036" y1="1556" y2="1556"/>
  <line id="Capline-L" style="fill:none;stroke:#27AAE1;opacity:1;stroke-width:0.5;" x1="263" x2="3036" y1="1485.54" y2="1485.54"/>
  <line id="left-margin-Ultralight-S" style="fill:none;stroke:#00AEEF;stroke-width:0.5;opacity:1.0;" x1="515.649" x2="515.649" y1="600.785" y2="720.121"/>
  <line id="right-margin-Ultralight-S" style="fill:none;stroke:#00AEEF;stroke-width:0.5;opacity:1.0;" x1="603.773" x2="603.773" y1="600.785" y2="720.121"/>
  <line id="left-margin-Regular-S" style="fill:none;stroke:#00AEEF;stroke-width:0.5;opacity:1.0;" x1="1403.58" x2="1403.58" y1="600.785" y2="720.121"/>
  <line id="right-margin-Regular-S" style="fill:none;stroke:#00AEEF;stroke-width:0.5;opacity:1.0;" x1="1496.11" x2="1496.11" y1="600.785" y2="720.121"/>
  <line id="left-margin-Black-S" style="fill:none;stroke:#00AEEF;stroke-width:0.5;opacity:1.0;" x1="2884.57" x2="2884.57" y1="600.785" y2="720.121"/>
  <line id="right-margin-Black-S" style="fill:none;stroke:#00AEEF;stroke-width:0.5;opacity:1.0;" x1="2982.23" x2="2982.23" y1="600.785" y2="720.121"/>
 </g>
 <g id="Symbols">
  <g id="Black-S" transform="matrix(1 0 0 1 2884.57 696)">
   <path class="monochrome-0 multicolor-0:tintColor hierarchical-0:primary SFSymbolsPreview007AFF" d="M62.2069-64.8684C66.5149-64.8684 69.0366-64.3814 71.671-62.9725C74.1946-61.6229 76.2169-59.6005 77.5666-57.077C78.9754-54.4426 79.4624-51.9209 79.4624-47.6128L79.4624-13.0334C79.4624-8.7254 78.9754-6.20366 77.5666-3.5693C76.2169-1.04572 74.1946 0.976655 71.671 2.32628C69.0366 3.73515 66.5149 4.22212 62.2069 4.22212L20.6855 4.22212C16.3775 4.22212 13.8558 3.73515 11.2214 2.32628C8.69784 0.976655 6.67547-1.04572 5.32584-3.5693C3.91697-6.20366 3.43-8.7254 3.43-13.0334L3.43-47.6128C3.43-51.9209 3.91697-54.4426 5.32584-57.077C6.67547-59.6005 8.69784-61.6229 11.2214-62.9725C13.8558-64.3814 16.3775-64.8684 20.6855-64.8684L62.2069-64.8684ZM59.8333-50.8684L23.0591-50.8684C20.8903-50.8574 20.1476-50.7072 19.3879-50.3095C18.7824-49.9924 18.3254-49.5451 18.0016-48.9523C17.579-48.1788 17.43-47.4233 17.43-45.0967L17.4307-15.2886C17.4419-13.1655 17.5953-12.4383 18.0016-11.6946C18.3254-11.1018 18.7824-10.6545 19.3879-10.3374C20.178-9.92377 20.9497-9.77788 23.3263-9.77788L59.5661-9.77788C61.9427-9.77788 62.7144-9.92377 63.5045-10.3374C64.11-10.6545 64.567-11.1018 64.8908-11.6946C65.3134-12.4681 65.4624-13.2236 65.4624-15.5502L65.4624-45.0967C65.4624-47.4233 65.3134-48.1788 64.8908-48.9523C64.567-49.5451 64.11-49.9924 63.5045-50.3095C62.9778-50.5853 61.754-50.7716 59.8333-50.8684Z"/>
   <path class="monochrome-1 multicolor-1:tintColor hierarchical-1:primary SFSymbolsPreviewFFFFFF" d="M72.0389-33.4276L64.9679-26.3566C58.329-19.7177 47.5652-19.7177 40.9262-26.3566L40.9262-26.3566C34.2873-32.9955 34.2873-43.7593 40.9262-50.3982L55.0684-64.5403C61.7073-71.1793 72.4711-71.1793 79.11-64.5403L79.11-64.5403C85.7489-57.9014 85.7489-47.1376 79.11-40.4987Z"/>
   <path class="monochrome-2 multicolor-2:tintColor hierarchical-2:secondary SFSymbolsPreview007AFF" d="M68.1789-76.7819L86.237-76.3559C88.7715-76.2961 90.8124-74.2564 90.8736-71.722L91.3103-53.6532C91.3737-51.0306 89.2991-48.8532 86.6765-48.7898C84.0539-48.7264 81.8765-50.8011 81.8131-53.4236L81.686-58.6832L54.1146-31.1116C51.7715-28.7684 47.9725-28.7684 45.6293-31.1116C43.2862-33.4547 43.2862-37.2537 45.6293-39.5968L73.193-67.1612L67.9549-67.2845C65.4117-67.3445 63.3827-69.3927 63.3184-71.9081L63.3182-72.1452C63.3801-74.7679 65.5563-76.8438 68.1789-76.7819Z"/>
  </g>
  <g id="Regular-S" transform="matrix(1 0 0 1 1403.58 696)">
   <path class="monochrome-0 multicolor-0:tintColor hierarchical-0:primary SFSymbolsPreview007AFF" d="M63.1969-63.3684C66.9765-63.3684 68.9524-62.9868 71.0104-61.8862C72.924-60.8628 74.4468-59.34 75.4702-57.4264C76.5708-55.3684 76.9524-53.3925 76.9524-49.6128L76.9524-15.0334C76.9524-11.2538 76.5708-9.27788 75.4702-7.2199C74.4468-5.30626 72.924-3.78349 71.0104-2.76006C68.9524-1.65944 66.9765-1.27788 63.1969-1.27788L21.6755-1.27788C17.8959-1.27788 15.92-1.65944 13.862-2.76006C11.9484-3.78349 10.4256-5.30626 9.40218-7.2199C8.30156-9.27788 7.92-11.2538 7.92-15.0334L7.92-49.6128C7.92-53.3925 8.30156-55.3684 9.40218-57.4264C10.4256-59.34 11.9484-60.8628 13.862-61.8862C15.92-62.9868 17.8959-63.3684 21.6755-63.3684L63.1969-63.3684ZM63.503-56.3676L21.3694-56.3676C18.8846-56.3548 18.0336-56.179 17.1632-55.7135C16.4694-55.3425 15.9459-54.8189 15.5749-54.1252C15.0907-53.2199 14.92-52.3357 14.92-49.6128L14.9208-14.7273C14.9336-12.2425 15.1094-11.3915 15.5749-10.5211C15.9459-9.82733 16.4694-9.30379 17.1632-8.93276C18.0685-8.44862 18.9527-8.27788 21.6755-8.27788L63.1969-8.27788C65.9197-8.27788 66.8039-8.44862 67.7092-8.93276C68.4029-9.30379 68.9265-9.82733 69.2975-10.5211C69.7816-11.4263 69.9524-12.3105 69.9524-15.0334L69.9524-49.6128C69.9524-52.3357 69.7816-53.2199 69.2975-54.1252C68.9265-54.8189 68.4029-55.3425 67.7092-55.7135C67.1057-56.0363 65.7036-56.2543 63.503-56.3676Z"/>
   <path class="monochrome-1 multicolor-1:tintColor hierarchical-1:primary SFSymbolsPreviewFFFFFF" d="M69.3717-34.1351L63.3613-28.1247C57.5035-22.2668 48.006-22.2668 42.1481-28.1247L41.6844-28.5885C35.8265-34.4463 35.8265-43.9438 41.6844-49.8017L53.7052-61.8225C59.563-67.6803 69.0605-67.6803 74.9184-61.8225L75.3821-61.3587C81.24-55.5008 81.24-46.0034 75.3821-40.1455Z"/>
   <path class="monochrome-2 multicolor-2:tintColor hierarchical-2:secondary SFSymbolsPreview007AFF" d="M64.3249-72.2656L82.383-71.8396C83.9837-71.8018 85.2727-70.5136 85.3114-68.9129L85.7481-50.8441C85.7881-49.1877 84.4778-47.8125 82.8215-47.7725C81.1651-47.7325 79.7899-49.0428 79.7498-50.6991L79.4986-61.0784L54.1804-35.7588C52.8136-34.392 50.5975-34.392 49.2307-35.7588C47.8639-37.1257 47.8639-39.3418 49.2307-40.7086L74.5456-66.0244L64.1834-66.2672C62.5907-66.3048 61.3173-67.577 61.2564-69.1474L61.255-69.3372C61.2941-70.9936 62.6685-72.3047 64.3249-72.2656Z"/>
  </g>
  <g id="Ultralight-S" transform="matrix(1 0 0 1 515.649 696)">
   <path class="monochrome-0 multicolor-0:tintColor hierarchical-0:primary SFSymbolsPreview007AFF" d="M59.1279-60.8684C62.5301-60.8684 64.1161-60.5621 65.7624-59.6817C67.2403-58.8912 68.4062-57.7253 69.1967-56.2474C70.0771-54.6011 70.3834-53.0151 70.3834-49.6128L70.3834-15.0334C70.3834-11.6312 70.0771-10.0452 69.1967-8.3989C68.4062-6.92093 67.2403-5.75503 65.7624-4.9646C64.1161-4.08415 62.5301-3.77788 59.1279-3.77788L17.6065-3.77788C14.2043-3.77788 12.6183-4.08415 10.972-4.9646C9.49405-5.75503 8.32815-6.92093 7.53772-8.3989C6.65727-10.0452 6.351-11.6312 6.351-15.0334L6.351-49.6128C6.351-53.0151 6.65727-54.6011 7.53772-56.2474C8.32815-57.7253 9.49405-58.8912 10.972-59.6817C12.6183-60.5621 14.2043-60.8684 17.6065-60.8684L59.1279-60.8684ZM59.1279-58.8684L17.6065-58.8684C14.5062-58.8684 13.2322-58.6223 11.9152-57.918C10.7858-57.314 9.90537-56.4336 9.30134-55.3042C8.59704-53.9872 8.351-52.7131 8.351-49.6128L8.351-15.0334C8.351-11.9331 8.59704-10.659 9.30134-9.3421C9.90537-8.21266 10.7858-7.33225 11.9152-6.72822C13.2322-6.02392 14.5062-5.77788 17.6065-5.77788L59.1279-5.77788C62.2282-5.77788 63.5022-6.02392 64.8192-6.72822C65.9486-7.33225 66.829-8.21266 67.433-9.3421C68.1374-10.659 68.3834-11.9331 68.3834-15.0334L68.3834-49.6128C68.3834-52.7131 68.1374-53.9872 67.433-55.3042C66.829-56.4336 65.9486-57.314 64.8192-57.918C63.5022-58.6223 62.2282-58.8684 59.1279-58.8684Z"/>
   <path class="monochrome-1 multicolor-1:tintColor hierarchical-1:primary SFSymbolsPreviewFFFFFF" d="M62.0303-38.1147L52.1308-28.2152C48.2256-24.3099 41.8939-24.3099 37.9887-28.2152L37.7058-28.498C33.8006-32.4032 33.8006-38.7349 37.7058-42.6401L57.5048-62.4391C61.4101-66.3444 67.7417-66.3444 71.6469-62.4391L71.9298-62.1563C75.835-58.251 75.835-51.9194 71.9298-48.0141Z"/>
   <path class="monochrome-2 multicolor-2:tintColor hierarchical-2:secondary SFSymbolsPreview007AFF" d="M60.2064-70.1664L78.2645-69.7402C78.7447-69.7288 79.1314-69.3424 79.143-68.8622L79.58-50.7934C79.5917-50.2964 79.1986-49.8839 78.7017-49.8719C78.2048-49.8599 77.7922-50.253 77.7802-50.7499L77.3966-66.5804L48.3437-37.5266C47.9531-37.1361 47.32-37.1361 46.9295-37.5266C46.5389-37.9171 46.5389-38.5503 46.9295-38.9408L75.9826-67.9954L60.1639-68.3667C59.7084-68.3774 59.34-68.7248 59.2907-69.1654L59.2854-69.2876C59.2971-69.7846 59.7095-70.1779 60.2064-70.1664Z"/>
  </g>
 </g>
</svg>
