<?xml version="1.0" encoding="UTF-8"?>
<!--Generator: Apple Native CoreSVG 341-->
<!DOCTYPE svg
PUBLIC "-//W3C//DTD SVG 1.1//EN"
       "http://www.w3.org/Graphics/SVG/1.1/DTD/svg11.dtd">
<svg version="1.1" xmlns="http://www.w3.org/2000/svg" xmlns:xlink="http://www.w3.org/1999/xlink" viewBox="0 0 3300 2200">
 <!--glyph: "", point size: 100.0, font version: "20.0d10e1", template writer version: "138.0.0"-->
 <style>.monochrome-0 {-sfsymbols-motion-group:1;-sfsymbols-layer-tags:-7f6b8d67e22370cb f30070755204c36 gamecontroller}
.monochrome-1 {-sfsymbols-motion-group:1;-sfsymbols-layer-tags:-7f6b8d67e22370cb f30070755204c36 gamecontroller}
.monochrome-2 {opacity:0.0;-sfsymbols-clear-behind:true;-sfsymbols-motion-group:0;-sfsymbols-layer-tags:_slash f30070755204c36}
.monochrome-3 {-sfsymbols-motion-group:0;-sfsymbols-layer-tags:_slash f30070755204c36}

.multicolor-0:tintColor {-sfsymbols-motion-group:1;-sfsymbols-layer-tags:-7f6b8d67e22370cb f30070755204c36 gamecontroller}
.multicolor-1:tintColor {-sfsymbols-motion-group:1;-sfsymbols-layer-tags:-7f6b8d67e22370cb f30070755204c36 gamecontroller}
.multicolor-2:tintColor {opacity:0.0;-sfsymbols-clear-behind:true;-sfsymbols-motion-group:0;-sfsymbols-layer-tags:_slash f30070755204c36}
.multicolor-3:tintColor {-sfsymbols-motion-group:0;-sfsymbols-layer-tags:_slash f30070755204c36}

.hierarchical-0:secondary {-sfsymbols-motion-group:1;-sfsymbols-layer-tags:-7f6b8d67e22370cb f30070755204c36 gamecontroller}
.hierarchical-1:secondary {-sfsymbols-motion-group:1;-sfsymbols-layer-tags:-7f6b8d67e22370cb f30070755204c36 gamecontroller}
.hierarchical-2:primary {opacity:0.0;-sfsymbols-clear-behind:true;-sfsymbols-motion-group:0;-sfsymbols-layer-tags:_slash f30070755204c36}
.hierarchical-3:primary {-sfsymbols-motion-group:0;-sfsymbols-layer-tags:_slash f30070755204c36}

.SFSymbolsPreviewWireframe {fill:none;opacity:1.0;stroke:black;stroke-width:0.5}
</style>
 <g id="Notes">
  <rect height="2200" id="artboard" style="fill:white;opacity:1" width="3300" x="0" y="0"/>
  <line style="fill:none;stroke:black;opacity:1;stroke-width:0.5;" x1="263" x2="3036" y1="292" y2="292"/>
  <text style="stroke:none;fill:black;font-family:sans-serif;font-size:13;font-weight:bold;" transform="matrix(1 0 0 1 263 322)">Weight/Scale Variations</text>
  <text style="stroke:none;fill:black;font-family:sans-serif;font-size:13;text-anchor:middle;" transform="matrix(1 0 0 1 559.711 322)">Ultralight</text>
  <text style="stroke:none;fill:black;font-family:sans-serif;font-size:13;text-anchor:middle;" transform="matrix(1 0 0 1 856.422 322)">Thin</text>
  <text style="stroke:none;fill:black;font-family:sans-serif;font-size:13;text-anchor:middle;" transform="matrix(1 0 0 1 1153.13 322)">Light</text>
  <text style="stroke:none;fill:black;font-family:sans-serif;font-size:13;text-anchor:middle;" transform="matrix(1 0 0 1 1449.84 322)">Regular</text>
  <text style="stroke:none;fill:black;font-family:sans-serif;font-size:13;text-anchor:middle;" transform="matrix(1 0 0 1 1746.56 322)">Medium</text>
  <text style="stroke:none;fill:black;font-family:sans-serif;font-size:13;text-anchor:middle;" transform="matrix(1 0 0 1 2043.27 322)">Semibold</text>
  <text style="stroke:none;fill:black;font-family:sans-serif;font-size:13;text-anchor:middle;" transform="matrix(1 0 0 1 2339.98 322)">Bold</text>
  <text style="stroke:none;fill:black;font-family:sans-serif;font-size:13;text-anchor:middle;" transform="matrix(1 0 0 1 2636.69 322)">Heavy</text>
  <text style="stroke:none;fill:black;font-family:sans-serif;font-size:13;text-anchor:middle;" transform="matrix(1 0 0 1 2933.4 322)">Black</text>
  <line style="fill:none;stroke:black;opacity:1;stroke-width:0.5;" x1="263" x2="3036" y1="1903" y2="1903"/>
  <g transform="matrix(0.2 0 0 0.2 263 1933)">
   <path d="m46.2402 4.15039c21.7773 0 39.4531-17.627 39.4531-39.4043s-17.6758-39.4043-39.4531-39.4043c-21.7285 0-39.4043 17.627-39.4043 39.4043s17.6758 39.4043 39.4043 39.4043Zm0-7.42188c-17.6758 0-31.9336-14.3066-31.9336-31.9824s14.2578-31.9824 31.9336-31.9824 31.9824 14.3066 31.9824 31.9824-14.3066 31.9824-31.9824 31.9824Zm-17.9688-31.9824c0 2.14844 1.51367 3.61328 3.75977 3.61328h10.498v10.5957c0 2.19727 1.46484 3.71094 3.61328 3.71094 2.24609 0 3.71094-1.51367 3.71094-3.71094v-10.5957h10.5957c2.19727 0 3.71094-1.46484 3.71094-3.61328 0-2.19727-1.51367-3.71094-3.71094-3.71094h-10.5957v-10.5469c0-2.24609-1.46484-3.75977-3.71094-3.75977-2.14844 0-3.61328 1.51367-3.61328 3.75977v10.5469h-10.498c-2.24609 0-3.75977 1.51367-3.75977 3.71094Z"/>
  </g>
  <g transform="matrix(0.2 0 0 0.2 281.506 1933)">
   <path d="m58.5449 14.5508c27.4902 0 49.8047-22.3145 49.8047-49.8047s-22.3145-49.8047-49.8047-49.8047-49.8047 22.3145-49.8047 49.8047 22.3145 49.8047 49.8047 49.8047Zm0-8.30078c-22.9492 0-41.5039-18.5547-41.5039-41.5039s18.5547-41.5039 41.5039-41.5039 41.5039 18.5547 41.5039 41.5039-18.5547 41.5039-41.5039 41.5039Zm-22.6562-41.5039c0 2.39258 1.66016 4.00391 4.15039 4.00391h14.3555v14.4043c0 2.44141 1.66016 4.15039 4.05273 4.15039 2.44141 0 4.15039-1.66016 4.15039-4.15039v-14.4043h14.4043c2.44141 0 4.15039-1.61133 4.15039-4.00391 0-2.44141-1.70898-4.15039-4.15039-4.15039h-14.4043v-14.3555c0-2.49023-1.70898-4.19922-4.15039-4.19922-2.39258 0-4.05273 1.70898-4.05273 4.19922v14.3555h-14.3555c-2.49023 0-4.15039 1.70898-4.15039 4.15039Z"/>
  </g>
  <g transform="matrix(0.2 0 0 0.2 304.924 1933)">
   <path d="m74.8535 28.3203c35.1074 0 63.623-28.4668 63.623-63.5742s-28.5156-63.623-63.623-63.623-63.5742 28.5156-63.5742 63.623 28.4668 63.5742 63.5742 63.5742Zm0-9.08203c-30.127 0-54.4922-24.3652-54.4922-54.4922s24.3652-54.4922 54.4922-54.4922 54.4922 24.3652 54.4922 54.4922-24.3652 54.4922-54.4922 54.4922Zm-28.8574-54.4922c0 2.58789 1.85547 4.39453 4.58984 4.39453h19.7266v19.7754c0 2.68555 1.85547 4.58984 4.44336 4.58984 2.68555 0 4.54102-1.85547 4.54102-4.58984v-19.7754h19.7754c2.68555 0 4.58984-1.80664 4.58984-4.39453 0-2.73438-1.85547-4.58984-4.58984-4.58984h-19.7754v-19.7266c0-2.73438-1.85547-4.63867-4.54102-4.63867-2.58789 0-4.44336 1.9043-4.44336 4.63867v19.7266h-19.7266c-2.73438 0-4.58984 1.85547-4.58984 4.58984Z"/>
  </g>
  <text style="stroke:none;fill:black;font-family:sans-serif;font-size:13;font-weight:bold;" transform="matrix(1 0 0 1 263 1953)">Design Variations</text>
  <text style="stroke:none;fill:black;font-family:sans-serif;font-size:13;" transform="matrix(1 0 0 1 263 1971)">Symbols are supported in up to nine weights and three scales.</text>
  <text style="stroke:none;fill:black;font-family:sans-serif;font-size:13;" transform="matrix(1 0 0 1 263 1989)">For optimal layout with text and other symbols, vertically align</text>
  <text style="stroke:none;fill:black;font-family:sans-serif;font-size:13;" transform="matrix(1 0 0 1 263 2007)">symbols with the adjacent text.</text>
  <line style="fill:none;stroke:#00AEEF;stroke-width:0.5;opacity:1.0;" x1="776" x2="776" y1="1919" y2="1933"/>
  <g transform="matrix(0.2 0 0 0.2 776 1933)">
   <path d="m16.5527 0.78125c2.58789 0 3.85742-0.976562 4.78516-3.71094l6.29883-17.2363h28.8086l6.29883 17.2363c0.927734 2.73438 2.19727 3.71094 4.73633 3.71094 2.58789 0 4.24805-1.5625 4.24805-4.00391 0-0.830078-0.146484-1.61133-0.537109-2.63672l-22.9004-60.9863c-1.12305-2.97852-3.125-4.49219-6.25-4.49219-3.02734 0-5.07812 1.46484-6.15234 4.44336l-22.9004 61.084c-0.390625 1.02539-0.537109 1.80664-0.537109 2.63672 0 2.44141 1.5625 3.95508 4.10156 3.95508Zm13.4766-28.3691 11.8652-32.8613h0.244141l11.8652 32.8613Z"/>
  </g>
  <line style="fill:none;stroke:#00AEEF;stroke-width:0.5;opacity:1.0;" x1="792.836" x2="792.836" y1="1919" y2="1933"/>
  <text style="stroke:none;fill:black;font-family:sans-serif;font-size:13;font-weight:bold;" transform="matrix(1 0 0 1 776 1953)">Margins</text>
  <text style="stroke:none;fill:black;font-family:sans-serif;font-size:13;" transform="matrix(1 0 0 1 776 1971)">Leading and trailing margins on the left and right side of each symbol</text>
  <text style="stroke:none;fill:black;font-family:sans-serif;font-size:13;" transform="matrix(1 0 0 1 776 1989)">can be adjusted by modifying the x-location of the margin guidelines.</text>
  <text style="stroke:none;fill:black;font-family:sans-serif;font-size:13;" transform="matrix(1 0 0 1 776 2007)">Modifications are automatically applied proportionally to all</text>
  <text style="stroke:none;fill:black;font-family:sans-serif;font-size:13;" transform="matrix(1 0 0 1 776 2025)">scales and weights.</text>
  <g transform="matrix(0.2 0 0 0.2 1289 1933)">
   <path d="m14.209 9.32617 8.49609 8.54492c4.29688 4.3457 9.22852 4.05273 13.8672-1.07422l53.4668-58.9355-4.83398-4.88281-53.0762 58.3984c-1.75781 2.00195-3.41797 2.49023-5.76172 0.146484l-5.85938-5.81055c-2.34375-2.29492-1.80664-4.00391 0.195312-5.81055l57.373-54.0039-4.88281-4.83398-57.959 54.4434c-4.93164 4.58984-5.32227 9.47266-1.02539 13.8184Zm32.0801-90.9668c-2.09961 2.05078-2.24609 4.93164-1.07422 6.88477 1.17188 1.80664 3.4668 2.97852 6.68945 2.14844 7.32422-1.70898 14.9414-2.00195 22.0703 2.68555l-2.92969 7.27539c-1.70898 4.15039-0.830078 7.08008 1.85547 9.81445l11.4746 11.5723c2.44141 2.44141 4.49219 2.53906 7.32422 2.05078l5.32227-0.976562 3.32031 3.36914-0.195312 2.7832c-0.195312 2.49023 0.439453 4.39453 2.88086 6.78711l3.80859 3.71094c2.39258 2.39258 5.46875 2.53906 7.8125 0.195312l14.5508-14.5996c2.34375-2.34375 2.24609-5.32227-0.146484-7.71484l-3.85742-3.80859c-2.39258-2.39258-4.24805-3.17383-6.64062-2.97852l-2.88086 0.244141-3.22266-3.17383 1.2207-5.61523c0.634766-2.83203-0.146484-5.0293-3.07617-7.95898l-10.9863-10.9375c-16.6992-16.6016-38.8672-16.2109-53.3203-1.75781Zm7.4707 1.85547c12.1582-8.88672 28.6133-7.37305 39.7461 3.75977l12.1582 12.0605c1.17188 1.17188 1.36719 2.09961 1.02539 3.80859l-1.61133 7.42188 7.51953 7.42188 4.93164-0.292969c1.26953-0.0488281 1.66016 0.0488281 2.63672 1.02539l2.88086 2.88086-12.207 12.207-2.88086-2.88086c-0.976562-0.976562-1.12305-1.36719-1.07422-2.68555l0.341797-4.88281-7.4707-7.42188-7.61719 1.26953c-1.61133 0.341797-2.34375 0.195312-3.56445-0.976562l-10.0098-10.0098c-1.26953-1.17188-1.41602-2.00195-0.634766-3.85742l4.39453-10.4492c-7.8125-7.27539-17.9688-10.4004-28.125-7.42188-0.78125 0.195312-1.07422-0.439453-0.439453-0.976562Z"/>
  </g>
  <text style="stroke:none;fill:black;font-family:sans-serif;font-size:13;font-weight:bold;" transform="matrix(1 0 0 1 1289 1953)">Exporting</text>
  <text style="stroke:none;fill:black;font-family:sans-serif;font-size:13;" transform="matrix(1 0 0 1 1289 1971)">Symbols should be outlined when exporting to ensure the</text>
  <text style="stroke:none;fill:black;font-family:sans-serif;font-size:13;" transform="matrix(1 0 0 1 1289 1989)">design is preserved when submitting to Xcode.</text>
  <text id="template-version" style="stroke:none;fill:black;font-family:sans-serif;font-size:13;text-anchor:end;" transform="matrix(1 0 0 1 3036 1933)">Template v.6.0</text>
  <text style="stroke:none;fill:black;font-family:sans-serif;font-size:13;text-anchor:end;" transform="matrix(1 0 0 1 3036 1951)">Requires Xcode 16 or greater</text>
  <text id="descriptive-name" style="stroke:none;fill:black;font-family:sans-serif;font-size:13;text-anchor:end;" transform="matrix(1 0 0 1 3036 1969)">Generated from </text>
  <text style="stroke:none;fill:black;font-family:sans-serif;font-size:13;text-anchor:end;" transform="matrix(1 0 0 1 3036 1987)">Typeset at 100.0 points</text>
  <text style="stroke:none;fill:black;font-family:sans-serif;font-size:13;" transform="matrix(1 0 0 1 263 726)">Small</text>
  <text style="stroke:none;fill:black;font-family:sans-serif;font-size:13;" transform="matrix(1 0 0 1 263 1156)">Medium</text>
  <text style="stroke:none;fill:black;font-family:sans-serif;font-size:13;" transform="matrix(1 0 0 1 263 1586)">Large</text>
 </g>
 <g id="Guides">
  <g id="H-reference" style="fill:#27AAE1;stroke:none;" transform="matrix(1 0 0 1 339 696)">
   <path d="M0.993654 0L3.63775 0L29.3281-67.1323L30.0303-67.1323L30.0303-70.459L28.1226-70.459ZM11.6885-24.4799L46.9815-24.4799L46.2315-26.7285L12.4385-26.7285ZM55.1196 0L57.7637 0L30.6382-70.459L29.4326-70.459L29.4326-67.1323Z"/>
  </g>
  <line id="Baseline-S" style="fill:none;stroke:#27AAE1;opacity:1;stroke-width:0.5;" x1="263" x2="3036" y1="696" y2="696"/>
  <line id="Capline-S" style="fill:none;stroke:#27AAE1;opacity:1;stroke-width:0.5;" x1="263" x2="3036" y1="625.541" y2="625.541"/>
  <g id="H-reference" style="fill:#27AAE1;stroke:none;" transform="matrix(1 0 0 1 339 1126)">
   <path d="M0.993654 0L3.63775 0L29.3281-67.1323L30.0303-67.1323L30.0303-70.459L28.1226-70.459ZM11.6885-24.4799L46.9815-24.4799L46.2315-26.7285L12.4385-26.7285ZM55.1196 0L57.7637 0L30.6382-70.459L29.4326-70.459L29.4326-67.1323Z"/>
  </g>
  <line id="Baseline-M" style="fill:none;stroke:#27AAE1;opacity:1;stroke-width:0.5;" x1="263" x2="3036" y1="1126" y2="1126"/>
  <line id="Capline-M" style="fill:none;stroke:#27AAE1;opacity:1;stroke-width:0.5;" x1="263" x2="3036" y1="1055.54" y2="1055.54"/>
  <g id="H-reference" style="fill:#27AAE1;stroke:none;" transform="matrix(1 0 0 1 339 1556)">
   <path d="M0.993654 0L3.63775 0L29.3281-67.1323L30.0303-67.1323L30.0303-70.459L28.1226-70.459ZM11.6885-24.4799L46.9815-24.4799L46.2315-26.7285L12.4385-26.7285ZM55.1196 0L57.7637 0L30.6382-70.459L29.4326-70.459L29.4326-67.1323Z"/>
  </g>
  <line id="Baseline-L" style="fill:none;stroke:#27AAE1;opacity:1;stroke-width:0.5;" x1="263" x2="3036" y1="1556" y2="1556"/>
  <line id="Capline-L" style="fill:none;stroke:#27AAE1;opacity:1;stroke-width:0.5;" x1="263" x2="3036" y1="1485.54" y2="1485.54"/>
  <line id="right-margin-Black-S" style="fill:none;stroke:#00AEEF;stroke-width:0.5;opacity:1.0;" x1="3002.98" x2="3002.98" y1="600.785" y2="720.121"/>
  <line id="left-margin-Black-S" style="fill:none;stroke:#00AEEF;stroke-width:0.5;opacity:1.0;" x1="2863.82" x2="2863.82" y1="600.785" y2="720.121"/>
  <line id="right-margin-Regular-S" style="fill:none;stroke:#00AEEF;stroke-width:0.5;opacity:1.0;" x1="1515.25" x2="1515.25" y1="600.785" y2="720.121"/>
  <line id="left-margin-Regular-S" style="fill:none;stroke:#00AEEF;stroke-width:0.5;opacity:1.0;" x1="1384.44" x2="1384.44" y1="600.785" y2="720.121"/>
  <line id="right-margin-Ultralight-S" style="fill:none;stroke:#00AEEF;stroke-width:0.5;opacity:1.0;" x1="622.869" x2="622.869" y1="600.785" y2="720.121"/>
  <line id="left-margin-Ultralight-S" style="fill:none;stroke:#00AEEF;stroke-width:0.5;opacity:1.0;" x1="496.554" x2="496.554" y1="600.785" y2="720.121"/>
 </g>
 <g id="Symbols">
  <g id="Black-S" transform="matrix(1 0 0 1 2863.82 696)">
   <path class="monochrome-0 multicolor-0:tintColor hierarchical-0:secondary SFSymbolsPreviewWireframe" d="M9.76562-13.8672C9.76562-2.88086 17.1387 3.07617 26.5137 3.07617C34.2285 3.07617 39.502-0.0488281 43.8477-4.10156L50.0488-9.81445C50.9766-10.6445 51.2695-10.9863 52.6367-10.9863L86.5234-10.9863C87.8906-10.9863 88.1836-10.6445 89.1113-9.81445L95.3125-4.10156C99.707-0.0976562 104.932 3.07617 112.646 3.07617C122.021 3.07617 129.395-2.88086 129.395-13.8672C129.395-18.75 128.564-24.0234 126.904-29.541C124.463-37.6953 120.312-48.5352 116.455-56.6406C113.037-63.7695 110.596-68.457 100.83-70.6543C92.6758-72.5098 82.0312-73.5352 69.5801-73.5352C57.1289-73.5352 46.4844-72.5098 38.3301-70.6543C28.5645-68.457 26.123-63.7695 22.7051-56.6406C18.8477-48.5352 14.6973-37.6953 12.2559-29.541C10.5957-24.0234 9.76562-18.75 9.76562-13.8672ZM22.8516-15.2344C22.8516-17.1875 23.291-19.4824 24.3164-22.998C27.002-32.1777 31.3477-43.5547 35.1562-51.709C36.8652-55.4199 37.8418-56.7383 40.4297-57.373C47.9004-59.1797 57.7148-60.0586 69.5801-60.0586C81.4453-60.0586 91.2598-59.1797 98.7305-57.373C101.318-56.7383 102.295-55.4199 104.004-51.709C107.764-43.5547 112.158-32.1777 114.844-22.998C115.869-19.4824 116.309-17.1875 116.309-15.2344C116.309-12.0117 114.062-10.3027 111.23-10.3027C109.229-10.3027 106.982-11.2305 104.98-13.0371L95.166-21.9727C93.1641-23.8281 91.6504-24.4629 89.3555-24.4629L49.8047-24.4629C47.5098-24.4629 45.9961-23.8281 43.9941-21.9727L34.1797-13.0371C32.2266-11.1816 29.9316-10.3027 27.9297-10.3027C25.0977-10.3027 22.8516-12.0117 22.8516-15.2344Z"/>
   <path class="monochrome-1 multicolor-1:tintColor hierarchical-1:secondary SFSymbolsPreviewWireframe" d="M37.1582-41.6504C37.1582-38.8184 39.1113-36.9629 42.041-36.9629L46.4844-36.9629L46.4844-32.8613C46.4844-29.834 48.4863-27.7832 51.4648-27.7832C54.4434-27.7832 56.4453-29.834 56.4453-32.8613L56.4453-36.9629L60.5957-36.9629C63.7207-36.9629 65.7715-38.8184 65.7715-41.6504C65.7715-44.4824 63.7207-46.3379 60.5957-46.3379L56.4453-46.3379L56.4453-50.4395C56.4453-53.4668 54.4434-55.5176 51.4648-55.5176C48.4863-55.5176 46.4844-53.4668 46.4844-50.4395L46.4844-46.3379L42.041-46.3379C39.1113-46.3379 37.1582-44.4824 37.1582-41.6504ZM93.9941-41.4062C97.6074-41.4062 100.391-44.1406 100.391-47.7539C100.391-51.3672 97.6074-54.1504 93.9941-54.1504C90.4297-54.1504 87.5977-51.3672 87.5977-47.7539C87.5977-44.1406 90.4297-41.4062 93.9941-41.4062ZM82.0801-29.1504C85.6934-29.1504 88.4766-31.9336 88.4766-35.498C88.4766-39.1113 85.6934-41.8945 82.0801-41.8945C78.5156-41.8945 75.6836-39.1113 75.6836-35.498C75.6836-31.9336 78.5156-29.1504 82.0801-29.1504Z"/>
   <path class="monochrome-2 multicolor-2:tintColor hierarchical-2:primary SFSymbolsPreviewWireframe" d="M113.552-4.48836C117.203-0.837264 117.203 5.09118 113.552 8.74227C109.901 12.3934 103.972 12.3934 100.321 8.74227L25.6082-65.9706C21.9571-69.6217 21.9571-75.5502 25.6082-79.2013C29.2593-82.8524 35.1878-82.8524 38.8389-79.2013Z" data-clipstroke-keyframes="0 0 0.0 0.5 0.6082697 0 1.0 0.10826972 0.0"/>
   <path class="monochrome-3 multicolor-3:tintColor hierarchical-3:primary SFSymbolsPreviewWireframe" d="M109.402-0.338247C110.762 1.02234 110.762 3.23158 109.402 4.59217C108.041 5.95275 105.832 5.95275 104.471 4.59217L29.7583-70.1207C28.3978-71.4813 28.3978-73.6906 29.7583-75.0511C31.1189-76.4117 33.3282-76.4117 34.6888-75.0511Z" data-clipstroke-keyframes="0 0 0.0 0.5 0.5458696 0 1.0 0.04586959 0.0"/>
  </g>
  <g id="Regular-S" transform="matrix(1 0 0 1 1384.44 696)">
   <path class="monochrome-0 multicolor-0:tintColor hierarchical-0:secondary SFSymbolsPreviewWireframe" d="M9.76562-15.332C9.76562-6.10352 15.7715-0.146484 24.7559-0.146484C29.3457-0.146484 33.8379-2.09961 37.1582-6.15234L43.9941-14.4531C44.9219-15.5762 46.0938-16.1621 47.168-16.1621L83.5938-16.1621C84.7168-16.1621 85.8887-15.5762 86.8164-14.4531L93.6523-6.15234C96.9238-2.09961 101.416-0.146484 106.006-0.146484C115.039-0.146484 121.045-6.10352 121.045-15.332C121.045-19.1895 120.166-23.6816 118.701-28.6133C116.357-36.4258 112.256-47.1191 108.35-55.3223C105.029-62.3535 103.271-65.6738 94.9707-67.5293C87.8418-69.1406 77.8809-70.3125 65.3809-70.3125C52.9297-70.3125 42.9688-69.1406 35.8398-67.5293C27.5391-65.6738 25.7812-62.3535 22.4121-55.3223C18.5547-47.1191 14.4531-36.4258 12.1094-28.6133C10.6445-23.6816 9.76562-19.1895 9.76562-15.332ZM16.4551-15.0879C16.4551-17.4805 16.9922-20.3613 18.0664-24.0723C20.752-33.2031 25.2441-44.7266 29.0527-53.0273C30.9082-57.0801 31.8359-59.4238 36.5234-60.498C43.4082-62.1094 53.125-63.2812 65.3809-63.2812C77.6367-63.2812 87.4023-62.1094 94.2383-60.498C98.9258-59.4238 99.8535-57.0801 101.758-53.0273C105.615-44.7266 109.912-33.1543 112.695-24.0723C113.818-20.3613 114.355-17.4805 114.355-15.0879C114.355-10.0098 110.742-6.88477 106.104-6.88477C103.32-6.88477 100.586-8.39844 98.4375-10.9863L91.2598-19.6777C89.4043-22.0215 87.8418-23.1934 83.9844-23.1934L46.8262-23.1934C42.9688-23.1934 41.4062-22.0215 39.502-19.6777L32.3242-10.9863C30.2246-8.39844 27.4902-6.88477 24.6582-6.88477C20.0195-6.88477 16.4551-10.0098 16.4551-15.0879Z"/>
   <path class="monochrome-1 multicolor-1:tintColor hierarchical-1:secondary SFSymbolsPreviewWireframe" d="M34.2773-42.8711C34.2773-40.5762 35.5957-39.209 37.8906-39.209L44.043-39.209L44.043-33.3496C44.043-31.1035 45.3125-29.7363 47.5098-29.7363C49.6582-29.7363 50.9277-31.1035 50.9277-33.3496L50.9277-39.209L56.6895-39.209C59.1309-39.209 60.5469-40.5762 60.5469-42.8711C60.5469-45.0684 59.1309-46.4355 56.6895-46.4355L50.9277-46.4355L50.9277-52.2949C50.9277-54.541 49.6582-55.9082 47.5098-55.9082C45.3125-55.9082 44.043-54.541 44.043-52.2949L44.043-46.4355L37.8906-46.4355C35.5957-46.4355 34.2773-45.0684 34.2773-42.8711ZM89.2578-43.0664C92.4316-43.0664 95.0195-45.6543 95.0195-48.8281C95.0195-52.002 92.4316-54.6387 89.2578-54.6387C86.084-54.6387 83.4473-52.002 83.4473-48.8281C83.4473-45.6543 86.084-43.0664 89.2578-43.0664ZM78.2227-31.7871C81.4453-31.7871 84.0332-34.375 84.0332-37.5977C84.0332-40.7715 81.4453-43.3594 78.2227-43.3594C75.0488-43.3594 72.4609-40.7715 72.4609-37.5977C72.4609-34.375 75.0488-31.7871 78.2227-31.7871Z"/>
   <path class="monochrome-2 multicolor-2:tintColor hierarchical-2:primary SFSymbolsPreviewWireframe" d="M106.458-6.06714C109.74-2.78573 109.74 2.54245 106.458 5.82386C103.177 9.10527 97.8488 9.10527 94.5674 5.82386L24.3517-64.3918C21.0702-67.6733 21.0702-73.0014 24.3517-76.2828C27.6331-79.5643 32.9612-79.5643 36.2426-76.2828Z" data-clipstroke-keyframes="0 0 0.0 0.5 0.60452837 0 1.0 0.104528375 0.0"/>
   <path class="monochrome-3 multicolor-3:tintColor hierarchical-3:primary SFSymbolsPreviewWireframe" d="M102.992-2.60066C104.36-1.23245 104.36 0.98917 102.992 2.35738C101.624 3.72558 99.402 3.72558 98.0338 2.35738L27.8181-67.8583C26.4499-69.2265 26.4499-71.4482 27.8181-72.8164C29.1863-74.1846 31.408-74.1846 32.7762-72.8164Z" data-clipstroke-keyframes="0 0 0.0 0.5 0.5487678 0 1.0 0.048767686 0.0"/>
  </g>
  <g id="Ultralight-S" transform="matrix(1 0 0 1 496.554 696)">
   <path class="monochrome-0 multicolor-0:tintColor hierarchical-0:secondary SFSymbolsPreviewWireframe" d="M9.76562-15.332C9.76562-7.55663 14.8633-2.37156 22.44-2.37156C26.2578-2.37156 30.0689-4.09764 33.0259-7.69628L40.4068-16.6328C41.5615-18.0283 42.6426-18.5688 44.0801-18.5688L82.2315-18.5688C83.627-18.5688 84.708-18.0283 85.9082-16.6328L93.2891-7.69628C96.2427-4.09764 100.054-2.37156 103.872-2.37156C111.452-2.37156 116.549-7.55663 116.549-15.332C116.549-18.7808 115.625-22.8643 114.115-27.9321C111.771-35.79 107.715-46.3472 103.627-54.959C100.625-61.2183 99.1846-63.585 92.1099-65.2134C84.4361-66.961 74.3389-67.9058 63.1558-67.9058C51.9761-67.9058 41.8335-66.961 34.2051-65.2134C27.1304-63.585 25.6904-61.2183 22.6846-54.959C18.6001-46.3472 14.5439-35.79 12.2002-27.9321C10.6899-22.8643 9.76562-18.7808 9.76562-15.332ZM11.9595-15.0879C11.9595-17.5713 12.4058-20.6338 14.252-26.9785C16.3472-34.1113 20.5215-44.9536 24.648-54.0264C26.5943-58.3061 28.0669-61.6035 34.2529-62.9956C41.5464-64.6977 51.8081-65.688 63.1558-65.688C74.458-65.688 84.7686-64.6977 92.0586-62.9956C98.2446-61.5581 99.7173-58.3061 101.667-54.0264C105.842-44.9536 109.958-34.1079 112.06-26.9785C113.909-20.6338 114.355-17.5713 114.355-15.0879C114.355-8.73829 110.152-4.56887 103.878-4.56887C100.55-4.56887 97.2256-6.26418 94.5777-9.44239L87.3545-18.1338C85.7715-20.0235 84.2544-20.7866 82.1226-20.7866L44.1924-20.7866C42.0606-20.7866 40.5435-20.0235 38.957-18.1338L31.7339-9.44239C29.044-6.26418 25.7647-4.56887 22.4331-4.56887C16.1597-4.56887 11.9595-8.73829 11.9595-15.0879Z"/>
   <path class="monochrome-1 multicolor-1:tintColor hierarchical-1:secondary SFSymbolsPreviewWireframe" d="M33.0059-42.9619C33.0059-42.3472 33.5069-41.8428 34.167-41.8428L44.1338-41.8428L44.1338-31.4424C44.1338-30.7856 44.6314-30.2812 45.2393-30.2812C45.8438-30.2812 46.3413-30.7856 46.3413-31.4424L46.3413-41.8428L56.2808-41.8428C56.9512-41.8428 57.459-42.3472 57.459-42.9619C57.459-43.5698 56.9512-44.0742 56.2808-44.0742L46.3413-44.0742L46.3413-54.4746C46.3413-55.1313 45.8438-55.6357 45.2393-55.6357C44.6314-55.6357 44.1338-55.1313 44.1338-54.4746L44.1338-44.0742L34.167-44.0742C33.5069-44.0742 33.0059-43.5698 33.0059-42.9619ZM86.624-44.3379C89.1621-44.3379 91.2051-46.29 91.2051-48.8735C91.2051-51.5024 89.1621-53.458 86.624-53.458C84.0405-53.458 81.9942-51.5024 81.9942-48.8735C81.9942-46.29 84.0405-44.3379 86.624-44.3379ZM74.272-32.6045C76.8589-32.6045 78.9019-34.602 78.9019-37.189C78.9019-39.8179 76.8589-41.77 74.272-41.77C71.6885-41.77 69.6909-39.8179 69.6909-37.189C69.6909-34.602 71.6885-32.6045 74.272-32.6045Z"/>
   <path class="monochrome-2 multicolor-2:tintColor hierarchical-2:primary SFSymbolsPreviewWireframe" d="M100.844-3.06064C102.366-1.53808 102.366 0.934172 100.844 2.45673C99.3212 3.97929 96.8489 3.97929 95.3264 2.45673L25.4713-67.3983C23.9487-68.9209 23.9487-71.3932 25.4713-72.9157C26.9938-74.4383 29.4661-74.4383 30.9886-72.9157Z" data-clipstroke-keyframes="0 0 0.0 0.5 0.55392593 0 1.0 0.053925958 0.0"/>
   <path class="monochrome-3 multicolor-3:tintColor hierarchical-3:primary SFSymbolsPreviewWireframe" d="M98.7928-1.00975C99.1835-0.619106 99.1835 0.0152006 98.7928 0.405845C98.4022 0.796489 97.7679 0.796489 97.3772 0.405845L27.5222-69.4492C27.1315-69.8399 27.1315-70.4742 27.5222-70.8648C27.9128-71.2555 28.5471-71.2555 28.9378-70.8648Z" data-clipstroke-keyframes="0 0 0.0 0.5 0.5139301 0 1.0 0.013930082 0.0"/>
  </g>
 </g>
</svg>
